<svg width="220" height="64" viewBox="0 0 220 64" fill="none" xmlns="http://www.w3.org/2000/svg">
<path d="M0 0V62.9065H41.542V40.3551H20.771V0H0Z" fill="white"/>
<path d="M73.5889 0V62.9065H93.173V41.542L103.262 62.9065H122.846V23.1448L103.262 4.74766V21.3645L93.173 0H73.5889Z" fill="white"/>
<path d="M219.579 63.5V5.34114C219.579 5.34114 219.579 2.96709 218.392 1.78018C217.205 0.593262 214.831 0.593262 214.831 0.593262C214.831 0.593262 189.906 0.593696 173.883 20.1776C157.86 39.7615 162.014 63.5 162.014 63.5H176.85C176.85 56.9718 178.63 44.5091 182.191 37.3877C185.752 30.2662 195.841 20.7708 204.743 16.6168C204.743 16.6168 205.336 26.7054 204.743 31.4533C204.575 32.7941 204.003 33.5591 202.962 34.4204C201.833 35.3547 199.401 35.6075 199.401 35.6075C197.028 35.6073 191.687 35.6073 187.532 39.7615C183.378 43.9157 183.378 49.8505 183.378 49.8505H204.743V63.5H219.579Z" fill="white"/>
<path d="M68.841 0H44.5093V63.5H68.841V0Z" fill="white"/>
<path d="M124.626 0H103.855L140.056 33.8271L127.593 62.3131H156.079C156.079 62.3131 156.673 48.6635 157.86 43.3224C159.047 37.9813 160.233 29.6729 167.948 21.3645C175.07 12.4626 181.004 7.71495 192.874 0.593458L154.892 0L146.584 18.3972L124.626 0Z" fill="white"/>
</svg>
