<svg width="24" height="24" viewBox="0 0 24 24" fill="none" xmlns="http://www.w3.org/2000/svg">
<path d="M4.95238 0.374023L4.12839 0.941023C2.92207 1.77374 1.8771 2.81871 1.04439 4.02502L0.476385 4.84902L2.12339 5.98402L2.69139 5.16002C3.386 4.1541 4.25747 3.28264 5.26339 2.58802L6.08739 2.02002L4.95238 0.374023ZM11.8014 4.29002C11.5542 4.04293 11.2558 3.8531 10.9273 3.73393C10.5987 3.61476 10.248 3.56915 9.89995 3.60034C9.55185 3.63153 9.21484 3.73874 8.91271 3.91441C8.61058 4.09008 8.35069 4.32993 8.15139 4.61702C7.69151 4.29599 7.13332 4.14706 6.57465 4.19634C6.01597 4.24561 5.49247 4.48995 5.09589 4.88653C4.69932 5.2831 4.45498 5.80661 4.4057 6.36528C4.35642 6.92396 4.50535 7.48215 4.82639 7.94202C4.71105 8.02202 4.60205 8.11302 4.49939 8.21502C4.05208 8.66311 3.80086 9.27038 3.80086 9.90352C3.80086 10.5367 4.05208 11.1439 4.49939 11.592L4.91939 12.012C4.81605 12.086 4.71772 12.1694 4.62439 12.262C4.17702 12.7095 3.9257 13.3163 3.9257 13.949C3.9257 14.5818 4.17702 15.1886 4.62439 15.636L8.94439 19.956C10.2928 21.3043 12.1215 22.0618 14.0284 22.0618C15.9352 22.0618 17.764 21.3043 19.1124 19.956L19.9574 19.112C21.0806 17.9885 21.8 16.5246 22.0033 14.949C22.2067 13.3735 21.8825 11.7749 21.0814 10.403L18.8554 6.59102C18.6308 6.2066 18.2921 5.90156 17.8864 5.71817C17.4807 5.53479 17.028 5.48213 16.591 5.5675C16.154 5.65288 15.7544 5.87205 15.4476 6.19466C15.1407 6.51726 14.9418 6.92733 14.8784 7.36802L11.8014 4.29002ZM5.91339 10.178C5.84391 10.1047 5.80578 10.0071 5.8071 9.90612C5.80842 9.8051 5.84909 9.70858 5.92046 9.63708C5.99183 9.56558 6.08827 9.52474 6.18929 9.52323C6.2903 9.52173 6.38792 9.55968 6.46139 9.62902L11.6994 14.867L13.1144 13.453L6.51039 6.84902C6.44373 6.77519 6.40797 6.67856 6.41051 6.57912C6.41305 6.47968 6.45369 6.38501 6.52403 6.31467C6.59437 6.24433 6.68904 6.20369 6.78848 6.20115C6.88793 6.19861 6.98455 6.23436 7.05839 6.30102L13.6624 12.905L15.0764 11.491L9.83939 6.25402C9.77004 6.18055 9.73209 6.08294 9.73359 5.98192C9.7351 5.88091 9.77594 5.78447 9.84744 5.7131C9.91895 5.64173 10.0155 5.60106 10.1165 5.59974C10.2175 5.59842 10.315 5.63655 10.3884 5.70602L15.8564 11.174C16.0122 11.33 16.2151 11.4302 16.4337 11.459C16.6522 11.4879 16.8742 11.4438 17.0651 11.3336C17.256 11.2233 17.4052 11.0532 17.4895 10.8495C17.5739 10.6458 17.5886 10.4199 17.5314 10.207L16.8634 7.71202C16.8549 7.67819 16.8588 7.64244 16.8744 7.61123C16.8899 7.58002 16.9162 7.55542 16.9483 7.54189C16.9805 7.52835 17.0164 7.52677 17.0496 7.53744C17.0828 7.5481 17.1111 7.5703 17.1294 7.60002L19.3554 11.413C19.9335 12.4033 20.1673 13.5572 20.0204 14.6944C19.8735 15.8316 19.3541 16.8881 18.5434 17.699L17.6994 18.544C16.7261 19.5171 15.4062 20.0638 14.0299 20.0638C12.6536 20.0638 11.3337 19.5171 10.3604 18.544L6.04039 14.224C5.97241 14.1509 5.93543 14.0542 5.93722 13.9544C5.93901 13.8545 5.97942 13.7593 6.04997 13.6886C6.12051 13.6179 6.21571 13.5773 6.31555 13.5754C6.41539 13.5734 6.51211 13.6102 6.58539 13.678L9.73739 16.83L11.1514 15.415L5.91339 10.178Z" fill="#FF8334"/>
</svg>
