<svg width="65" height="36" viewBox="0 0 65 36" fill="none" xmlns="http://www.w3.org/2000/svg">
<path d="M13.693 22.5V12.4773H15.2052V21.1982H19.7467V22.5H13.693ZM24.5208 22.6517C23.816 22.6517 23.201 22.4902 22.6758 22.1672C22.1505 21.8442 21.7426 21.3923 21.4523 20.8116C21.1619 20.2309 21.0167 19.5522 21.0167 18.7757C21.0167 17.996 21.1619 17.3141 21.4523 16.7301C21.7426 16.1461 22.1505 15.6926 22.6758 15.3696C23.201 15.0466 23.816 14.8851 24.5208 14.8851C25.2255 14.8851 25.8405 15.0466 26.3658 15.3696C26.891 15.6926 27.2989 16.1461 27.5892 16.7301C27.8796 17.3141 28.0248 17.996 28.0248 18.7757C28.0248 19.5522 27.8796 20.2309 27.5892 20.8116C27.2989 21.3923 26.891 21.8442 26.3658 22.1672C25.8405 22.4902 25.2255 22.6517 24.5208 22.6517ZM24.5256 21.4233C24.9824 21.4233 25.3609 21.3026 25.661 21.0612C25.9612 20.8198 26.1831 20.4984 26.3266 20.0971C26.4734 19.6958 26.5468 19.2537 26.5468 18.7708C26.5468 18.2912 26.4734 17.8508 26.3266 17.4495C26.1831 17.0449 25.9612 16.7203 25.661 16.4756C25.3609 16.2309 24.9824 16.1086 24.5256 16.1086C24.0656 16.1086 23.6839 16.2309 23.3805 16.4756C23.0803 16.7203 22.8568 17.0449 22.71 17.4495C22.5665 17.8508 22.4947 18.2912 22.4947 18.7708C22.4947 19.2537 22.5665 19.6958 22.71 20.0971C22.8568 20.4984 23.0803 20.8198 23.3805 21.0612C23.6839 21.3026 24.0656 21.4233 24.5256 21.4233ZM32.8098 25.4755C32.2128 25.4755 31.6989 25.3972 31.2682 25.2406C30.8408 25.084 30.4917 24.8768 30.2209 24.6191C29.9501 24.3613 29.7479 24.0791 29.6141 23.7724L30.8718 23.2537C30.9599 23.3972 31.0774 23.5489 31.2242 23.7088C31.3743 23.8719 31.5765 24.0106 31.831 24.1248C32.0888 24.239 32.4199 24.2961 32.8245 24.2961C33.3791 24.2961 33.8375 24.1607 34.1997 23.8899C34.5618 23.6223 34.7429 23.1949 34.7429 22.6077V21.1297H34.6499C34.5618 21.2896 34.4346 21.4674 34.2682 21.6631C34.1051 21.8589 33.88 22.0286 33.5928 22.1721C33.3057 22.3157 32.9322 22.3874 32.4721 22.3874C31.8783 22.3874 31.3433 22.2488 30.8669 21.9715C30.3939 21.6909 30.0187 21.2782 29.7413 20.7333C29.4673 20.1852 29.3302 19.5115 29.3302 18.7121C29.3302 17.9128 29.4656 17.2276 29.7364 16.6567C30.0105 16.0857 30.3857 15.6485 30.862 15.3451C31.3384 15.0384 31.8783 14.8851 32.4819 14.8851C32.9485 14.8851 33.3253 14.9634 33.6124 15.12C33.8995 15.2733 34.123 15.4528 34.2829 15.6583C34.446 15.8639 34.5716 16.0449 34.6597 16.2015H34.7674V14.983H36.2013V22.6664C36.2013 23.3124 36.0512 23.8426 35.7511 24.2569C35.4509 24.6713 35.0447 24.9779 34.5325 25.177C34.0235 25.376 33.4493 25.4755 32.8098 25.4755ZM32.7951 21.1738C33.216 21.1738 33.5716 21.0759 33.862 20.8801C34.1556 20.6811 34.3775 20.3973 34.5276 20.0286C34.6809 19.6566 34.7576 19.2113 34.7576 18.6925C34.7576 18.1868 34.6826 17.7415 34.5325 17.3565C34.3824 16.9715 34.1622 16.6714 33.8718 16.456C33.5814 16.2374 33.2225 16.1281 32.7951 16.1281C32.3547 16.1281 31.9876 16.2423 31.694 16.4707C31.4004 16.6958 31.1785 17.0025 31.0284 17.3908C30.8816 17.779 30.8082 18.2129 30.8082 18.6925C30.8082 19.1852 30.8832 19.6175 31.0333 19.9894C31.1834 20.3614 31.4053 20.6517 31.6989 20.8605C31.9958 21.0693 32.3612 21.1738 32.7951 21.1738ZM43.4406 12.4773V22.5H41.9284V12.4773H43.4406ZM46.9887 18.0368V22.5H45.5254V14.983H46.93V16.2064H47.023C47.1959 15.8084 47.4667 15.4887 47.8353 15.2472C48.2073 15.0058 48.6755 14.8851 49.2399 14.8851C49.7521 14.8851 50.2007 14.9927 50.5857 15.2081C50.9707 15.4201 51.2692 15.7366 51.4813 16.1575C51.6934 16.5784 51.7994 17.0988 51.7994 17.7187V22.5H50.3361V17.8948C50.3361 17.35 50.1942 16.9242 49.9104 16.6175C49.6265 16.3076 49.2366 16.1526 48.7407 16.1526C48.4014 16.1526 48.0996 16.226 47.8353 16.3728C47.5743 16.5196 47.3672 16.735 47.2138 17.0188C47.0637 17.2994 46.9887 17.6387 46.9887 18.0368Z" fill="#4B5563"/>
</svg>
