<svg width="93" height="36" viewBox="0 0 93 36" fill="none" xmlns="http://www.w3.org/2000/svg">
<rect x="0.5" y="0.5" width="91.52" height="35" rx="5.5" fill="white"/>
<rect x="0.5" y="0.5" width="91.52" height="35" rx="5.5" stroke="#4338CA"/>
<path d="M27.2493 15.1102C27.1971 14.6469 26.9817 14.288 26.6033 14.0335C26.2248 13.7758 25.7485 13.6469 25.1743 13.6469C24.7632 13.6469 24.4076 13.7122 24.1074 13.8427C23.8072 13.9699 23.574 14.1461 23.4076 14.3712C23.2444 14.5931 23.1629 14.8459 23.1629 15.1298C23.1629 15.3679 23.2183 15.5735 23.3293 15.7464C23.4435 15.9193 23.5919 16.0645 23.7746 16.182C23.9606 16.2962 24.1596 16.3924 24.3717 16.4707C24.5837 16.5457 24.7876 16.6077 24.9834 16.6567L25.9622 16.9112C26.2819 16.9895 26.6098 17.0955 26.9459 17.2293C27.2819 17.363 27.5935 17.5392 27.8806 17.7578C28.1677 17.9764 28.3994 18.2472 28.5755 18.5702C28.755 18.8932 28.8447 19.2798 28.8447 19.73C28.8447 20.2977 28.6979 20.8018 28.4042 21.2423C28.1139 21.6827 27.6914 22.0302 27.1367 22.2847C26.5853 22.5392 25.9181 22.6664 25.1351 22.6664C24.3847 22.6664 23.7355 22.5473 23.1873 22.3091C22.6392 22.071 22.2102 21.7333 21.9002 21.2961C21.5903 20.8556 21.419 20.3336 21.3864 19.73H22.9035C22.9329 20.0922 23.0503 20.394 23.2559 20.6354C23.4647 20.8736 23.7306 21.0514 24.0536 21.1689C24.3798 21.283 24.7371 21.3401 25.1253 21.3401C25.5527 21.3401 25.9328 21.2733 26.2656 21.1395C26.6017 21.0025 26.8659 20.8132 27.0584 20.5718C27.2509 20.3271 27.3472 20.0416 27.3472 19.7154C27.3472 19.4185 27.2623 19.1754 27.0927 18.9862C26.9263 18.7969 26.6995 18.6403 26.4124 18.5164C26.1286 18.3924 25.8072 18.2831 25.4483 18.1885L24.264 17.8655C23.4614 17.6469 22.8252 17.3255 22.3554 16.9014C21.8888 16.4772 21.6555 15.9161 21.6555 15.2179C21.6555 14.6404 21.8121 14.1363 22.1254 13.7056C22.4386 13.275 22.8627 12.9406 23.3978 12.7024C23.9328 12.461 24.5364 12.3402 25.2085 12.3402C25.8871 12.3402 26.4858 12.4593 27.0046 12.6975C27.5266 12.9357 27.9377 13.2636 28.2379 13.6812C28.538 14.0955 28.6946 14.5719 28.7077 15.1102H27.2493ZM30.5343 22.5V14.983H31.9976V22.5H30.5343ZM31.2733 13.8231C31.0188 13.8231 30.8002 13.7383 30.6175 13.5686C30.4381 13.3957 30.3484 13.1902 30.3484 12.952C30.3484 12.7105 30.4381 12.505 30.6175 12.3353C30.8002 12.1624 31.0188 12.076 31.2733 12.076C31.5278 12.076 31.7447 12.1624 31.9242 12.3353C32.1069 12.505 32.1982 12.7105 32.1982 12.952C32.1982 13.1902 32.1069 13.3957 31.9242 13.5686C31.7447 13.7383 31.5278 13.8231 31.2733 13.8231ZM37.1179 25.4755C36.5208 25.4755 36.0069 25.3972 35.5763 25.2406C35.1489 25.084 34.7998 24.8768 34.529 24.6191C34.2582 24.3613 34.0559 24.0791 33.9221 23.7724L35.1799 23.2537C35.268 23.3972 35.3854 23.5489 35.5322 23.7088C35.6823 23.8719 35.8846 24.0106 36.1391 24.1248C36.3968 24.239 36.728 24.2961 37.1325 24.2961C37.6872 24.2961 38.1456 24.1607 38.5077 23.8899C38.8699 23.6223 39.0509 23.1949 39.0509 22.6077V21.1297H38.958C38.8699 21.2896 38.7426 21.4674 38.5762 21.6631C38.4131 21.8589 38.188 22.0286 37.9009 22.1721C37.6138 22.3157 37.2402 22.3874 36.7802 22.3874C36.1864 22.3874 35.6513 22.2488 35.175 21.9715C34.7019 21.6909 34.3267 21.2782 34.0494 20.7333C33.7753 20.1852 33.6383 19.5115 33.6383 18.7121C33.6383 17.9128 33.7737 17.2276 34.0445 16.6567C34.3185 16.0857 34.6937 15.6485 35.1701 15.3451C35.6464 15.0384 36.1864 14.8851 36.79 14.8851C37.2565 14.8851 37.6333 14.9634 37.9205 15.12C38.2076 15.2733 38.4311 15.4528 38.5909 15.6583C38.754 15.8639 38.8797 16.0449 38.9678 16.2015H39.0754V14.983H40.5093V22.6664C40.5093 23.3124 40.3593 23.8426 40.0591 24.2569C39.7589 24.6713 39.3527 24.9779 38.8405 25.177C38.3315 25.376 37.7573 25.4755 37.1179 25.4755ZM37.1032 21.1738C37.524 21.1738 37.8797 21.0759 38.17 20.8801C38.4637 20.6811 38.6855 20.3973 38.8356 20.0286C38.989 19.6566 39.0656 19.2113 39.0656 18.6925C39.0656 18.1868 38.9906 17.7415 38.8405 17.3565C38.6904 16.9715 38.4702 16.6714 38.1798 16.456C37.8895 16.2374 37.5306 16.1281 37.1032 16.1281C36.6627 16.1281 36.2957 16.2423 36.002 16.4707C35.7084 16.6958 35.4865 17.0025 35.3365 17.3908C35.1897 17.779 35.1162 18.2129 35.1162 18.6925C35.1162 19.1852 35.1913 19.6175 35.3414 19.9894C35.4914 20.3614 35.7133 20.6517 36.0069 20.8605C36.3038 21.0693 36.6692 21.1738 37.1032 21.1738ZM43.9351 18.0368V22.5H42.4718V14.983H43.8763V16.2064H43.9693C44.1422 15.8084 44.413 15.4887 44.7817 15.2472C45.1537 15.0058 45.6218 14.8851 46.1863 14.8851C46.6985 14.8851 47.1471 14.9927 47.5321 15.2081C47.9171 15.4201 48.2156 15.7366 48.4277 16.1575C48.6397 16.5784 48.7458 17.0988 48.7458 17.7187V22.5H47.2825V17.8948C47.2825 17.35 47.1406 16.9242 46.8567 16.6175C46.5729 16.3076 46.183 16.1526 45.6871 16.1526C45.3478 16.1526 45.046 16.226 44.7817 16.3728C44.5207 16.5196 44.3135 16.735 44.1602 17.0188C44.0101 17.2994 43.9351 17.6387 43.9351 18.0368ZM60.9182 12.4773H62.4353V19.0694C62.4353 19.7708 62.2705 20.3924 61.941 20.9339C61.6115 21.4723 61.1482 21.8964 60.5511 22.2064C59.9541 22.5131 59.2542 22.6664 58.4516 22.6664C57.6523 22.6664 56.9541 22.5131 56.357 22.2064C55.76 21.8964 55.2967 21.4723 54.9672 20.9339C54.6376 20.3924 54.4729 19.7708 54.4729 19.0694V12.4773H55.9851V18.947C55.9851 19.4005 56.0846 19.8035 56.2836 20.1558C56.4859 20.5082 56.7714 20.7855 57.1401 20.9878C57.5087 21.1868 57.9459 21.2863 58.4516 21.2863C58.9606 21.2863 59.3994 21.1868 59.7681 20.9878C60.14 20.7855 60.4239 20.5082 60.6196 20.1558C60.8186 19.8035 60.9182 19.4005 60.9182 18.947V12.4773ZM64.5164 25.3189V14.983H65.9454V16.2015H66.0678C66.1526 16.0449 66.275 15.8639 66.4348 15.6583C66.5947 15.4528 66.8165 15.2733 67.1004 15.12C67.3842 14.9634 67.7594 14.8851 68.226 14.8851C68.8328 14.8851 69.3744 15.0384 69.8508 15.3451C70.3271 15.6518 70.7007 16.0939 70.9715 16.6714C71.2455 17.2488 71.3826 17.9438 71.3826 18.7562C71.3826 19.5685 71.2472 20.2651 70.9764 20.8459C70.7056 21.4233 70.3336 21.8687 69.8606 22.1819C69.3875 22.4918 68.8475 22.6468 68.2407 22.6468C67.7839 22.6468 67.4103 22.5701 67.12 22.4168C66.8329 22.2635 66.6077 22.084 66.4446 21.8785C66.2815 21.6729 66.1559 21.4902 66.0678 21.3304H65.9797V25.3189H64.5164ZM65.9503 18.7415C65.9503 19.27 66.027 19.7333 66.1803 20.1313C66.3337 20.5294 66.5555 20.841 66.8459 21.0661C67.1363 21.2879 67.4919 21.3989 67.9128 21.3989C68.35 21.3989 68.7154 21.283 69.009 21.0514C69.3026 20.8165 69.5245 20.4984 69.6746 20.0971C69.8279 19.6958 69.9046 19.2439 69.9046 18.7415C69.9046 18.2456 69.8296 17.8002 69.6795 17.4054C69.5327 17.0107 69.3108 16.6991 69.0139 16.4707C68.7203 16.2423 68.3532 16.1281 67.9128 16.1281C67.4886 16.1281 67.1298 16.2374 66.8361 16.456C66.5457 16.6746 66.3255 16.9797 66.1754 17.3712C66.0254 17.7627 65.9503 18.2195 65.9503 18.7415Z" fill="#4338CA"/>
</svg>
